<?xml version="1.0" encoding="UTF-8"?>
<svg id="Layer_2" data-name="Layer 2" xmlns="http://www.w3.org/2000/svg" viewBox="0 0 533.6 101.25">
  <defs>
    <style>
      .cls-1 {
        fill: #0e4f95;
      }

      .cls-1, .cls-2, .cls-3 {
        stroke-width: 0px;
      }

      .cls-2 {
        fill: #0072ba;
      }

      .cls-3 {
        fill: #383838;
      }
    </style>
  </defs>
  <g id="Layer_1-2" data-name="Layer 1">
    <g>
      <g>
        <g>
          <polygon class="cls-1" points="60.01 67.23 57.38 72.82 50.32 51.88 52.98 46.39 60.01 67.23"/>
          <polygon class="cls-1" points="86.24 101.24 81.84 101.24 65.46 66.7 67.65 62.04 86.24 101.24"/>
          <polygon class="cls-2" points="102.85 101.24 86.24 101.24 67.65 62.04 65.46 66.7 62.84 61.19 60.01 67.23 52.98 46.39 50.32 51.88 48.18 45.53 21.16 101.24 0 101.24 47.78 0 50.32 5.67 68.2 45.64 70.53 40.97 73 36.03 75.5 41.5 102.85 101.24"/>
        </g>
        <polygon class="cls-2" points="61.01 101.24 51.53 82.28 42.05 101.24 61.01 101.24"/>
      </g>
      <g>
        <path class="cls-3" d="m182.45,90.99h-34.81l-3.86,8.21h-16.01l31.86-67.74h10.67l31.86,67.74h-15.85l-3.86-8.21Zm-6.73-14.37l-10.67-22.66-10.67,22.66h21.35Z"/>
        <path class="cls-3" d="m225.56,31.46v67.74h-14.37V31.46h14.37Z"/>
        <path class="cls-3" d="m256.34,60.2v39h-14.37V31.46h14.37v14.37h10.26v14.37h-10.26Z"/>
        <path class="cls-3" d="m293.7,45.83v53.37h-14.37v-53.37h14.37Z"/>
        <path class="cls-3" d="m324.08,60.2v39h-14.37V31.46h14.37v14.37h10.26v14.37h-10.26Z"/>
        <path class="cls-3" d="m385.65,79.98v-34.16h14.37v53.37h-14.37v-.66c-3.72,1.81-7.83,2.71-12.31,2.71-7.94,0-14.71-2.8-20.32-8.42-5.61-5.61-8.42-12.38-8.42-20.32v-26.68h14.37v26.68c0,4,1.41,7.39,4.23,10.18,2.82,2.79,6.2,4.19,10.14,4.19s7.39-1.4,10.18-4.19c.82-.82,1.53-1.73,2.13-2.71Z"/>
        <path class="cls-3" d="m453.47,31.46h14.37v67.74h-14.37v-.66c-3.72,1.81-7.83,2.71-12.32,2.71-7.94,0-14.71-2.8-20.32-8.42-5.61-5.61-8.42-12.38-8.42-20.32s2.8-14.71,8.42-20.32c5.61-5.61,12.38-8.42,20.32-8.42,4.49,0,8.59.9,12.32,2.71v-15.03Zm0,33.58c-.6-.93-1.31-1.83-2.13-2.71-2.79-2.79-6.19-4.19-10.18-4.19s-7.32,1.41-10.14,4.23c-2.82,2.82-4.23,6.2-4.23,10.14s1.41,7.39,4.23,10.18c2.82,2.79,6.2,4.19,10.14,4.19s7.39-1.4,10.18-4.19c.82-.82,1.53-1.73,2.13-2.71v-14.94Z"/>
        <path class="cls-3" d="m505.03,86.39c1.15.33,2.38.49,3.7.49,3.99,0,7.39-1.42,10.18-4.27.71-.71,1.34-1.48,1.89-2.3l12.07,7.8c-1.04,1.64-2.3,3.2-3.78,4.68-5.64,5.64-12.42,8.46-20.36,8.46s-14.71-2.8-20.32-8.42c-5.61-5.61-8.42-12.38-8.42-20.32s2.8-14.71,8.42-20.32c5.61-5.61,12.38-8.42,20.32-8.42s14.72,2.79,20.36,8.37c1.75,1.81,3.26,3.72,4.52,5.75l-28.57,28.49Zm7.47-27.83c-1.2-.27-2.46-.41-3.78-.41-3.94,0-7.32,1.4-10.14,4.19-2.82,2.79-4.23,6.19-4.23,10.18,0,1.31.16,2.55.49,3.7l17.65-17.65Z"/>
      </g>
      <polygon class="cls-2" points="296 38.03 286.52 19.06 277.04 38.03 296 38.03"/>
    </g>
  </g>
</svg>