<svg width="50" height="50" viewBox="0 0 50 50" fill="none" xmlns="http://www.w3.org/2000/svg">
<circle cx="25" cy="25" r="25" fill="url(#paint0_linear_7_302)"/>
<path fill-rule="evenodd" clip-rule="evenodd" d="M13.6225 18.0625C13.5079 18.095 13.3784 18.1341 13.3346 18.1493C13.2752 18.17 14.6132 19.4136 18.5957 23.0393C21.5332 25.7136 23.9994 27.9398 24.0763 27.9865C24.174 28.0458 24.3015 28.0714 24.4986 28.0714C24.6949 28.0714 24.8244 28.0456 24.9232 27.9865C25.135 27.8601 35.7393 18.1864 35.6937 18.1613C35.6722 18.1495 35.5353 18.1078 35.3894 18.0686C35.1494 18.0043 34.115 17.9978 24.4775 18.0005C15.7521 18.0029 13.7933 18.0141 13.6225 18.0625ZM12.1058 19.3907L12 19.6833V25.9739V32.2646L12.1058 32.5572L12.2116 32.8497L15.9994 29.4119L19.7871 25.9739L15.9994 22.536L12.2116 19.0981L12.1058 19.3907ZM32.9926 22.5407L29.2101 25.974L32.9984 29.4124L36.7867 32.8508L36.8934 32.5476L37 32.2443L36.9864 25.8853C36.973 19.6124 36.9715 19.5235 36.8739 19.3169L36.775 19.1074L32.9926 22.5407ZM17.0345 30.3335C14.9574 32.2189 13.2771 33.772 13.3003 33.7848C13.3236 33.7976 13.4619 33.8401 13.6078 33.8792C13.8477 33.9436 14.8866 33.9504 24.4986 33.9504C34.1106 33.9504 35.1495 33.9436 35.3894 33.8792C35.5353 33.8401 35.6736 33.7976 35.6969 33.7848C35.7202 33.772 34.0398 32.2189 31.9627 30.3335L28.1861 26.9056L27.0137 27.9627C26.3688 28.5442 25.7424 29.0714 25.6215 29.1342C24.9857 29.465 24.0116 29.465 23.3757 29.1342C23.2549 29.0714 22.6284 28.5442 21.9836 27.9627L20.8111 26.9056L17.0345 30.3335Z" fill="white"/>
<defs>
<linearGradient id="paint0_linear_7_302" x1="25" y1="0" x2="25" y2="50" gradientUnits="userSpaceOnUse">
<stop stop-color="#0E4F95"/>
<stop offset="1" stop-color="#0072BA"/>
</linearGradient>
</defs>
</svg>
