<svg width="451" height="610" viewBox="0 0 451 610" fill="none" xmlns="http://www.w3.org/2000/svg">
<path d="M125 246.384C125 240.861 129.477 236.384 135 236.384H165.455C170.978 236.384 175.455 240.861 175.455 246.384V499.048H125V246.384Z" fill="#1D86C9"/>
<path d="M195.489 194.444C195.489 188.921 199.966 184.444 205.489 184.444H235.944C241.467 184.444 245.944 188.921 245.944 194.444V499.048H195.489V194.444Z" fill="#307FB0"/>
<path d="M265.978 142.505C265.978 136.982 270.455 132.505 275.978 132.505H306.433C311.956 132.505 316.433 136.982 316.433 142.505V499.048H265.978V142.505Z" fill="#0164A3"/>
<path d="M329.789 90.5657C329.789 85.0429 334.266 80.5657 339.789 80.5657H370.244C375.767 80.5657 380.244 85.0429 380.244 90.5657V499.048H329.789V90.5657Z" fill="#005E9A"/>
<path d="M400.278 69.048C400.278 63.5252 404.755 59.048 410.278 59.048H440.734C446.256 59.048 450.734 63.5252 450.734 69.048V499.048H400.278V69.048Z" fill="#00588F"/>
<path d="M387.903 10.7223C388.302 8.83086 387.092 6.97422 385.201 6.57533L354.379 0.0750685C352.487 -0.32382 350.631 0.886093 350.232 2.77748C349.833 4.66888 351.043 6.52552 352.934 6.9244L380.331 12.7024L374.553 40.0998C374.155 41.9912 375.365 43.8478 377.256 44.2467C379.147 44.6456 381.004 43.4357 381.403 41.5443L387.903 10.7223ZM111.039 192.369L386.389 12.9323L382.568 7.06769L107.217 186.505L111.039 192.369Z" fill="url(#paint0_linear_7_130)"/>
<circle cx="150" cy="459.048" r="150" fill="white"/>
<path d="M141.733 424.803L139.285 429.533L132.711 411.832L135.191 407.197L141.733 424.803Z" fill="#0E4F95"/>
<path d="M166.137 453.548H162.049L146.804 424.36L148.835 420.422L166.137 453.548Z" fill="#0E4F95"/>
<path d="M181.591 453.548H166.137L148.835 420.422L146.804 424.36L144.369 419.701L141.733 424.803L135.191 407.197L132.711 411.832L130.725 406.476L105.592 453.548H85.9006L130.354 368L132.711 372.789L149.349 406.564L151.517 402.621L153.821 398.447L156.145 403.064L181.591 453.548Z" fill="#0072BA"/>
<path d="M142.664 453.548L133.843 437.526L125.023 453.548H142.664Z" fill="#0072BA"/>
<path d="M61.3531 498.58H43.9401L42.0067 502.31H34L49.9354 471.538H55.2732L71.2085 502.31H63.2799L61.3466 498.58H61.3531ZM57.9877 492.053L52.6498 481.76L47.312 492.053H57.9942H57.9877Z" fill="#383838"/>
<path d="M82.9127 471.538V502.31H75.7261V471.538H82.9127Z" fill="#383838"/>
<path d="M98.3143 484.592V502.31H91.1277V471.538H98.3143V478.065H103.45V484.592H98.3143Z" fill="#383838"/>
<path d="M116.795 478.065V502.31H109.608V478.065H116.795Z" fill="#383838"/>
<path d="M132.196 484.592V502.31H125.01V471.538H132.196V478.065H137.332V484.592H132.196Z" fill="#383838"/>
<path d="M162.993 493.578V478.065H170.18V502.31H162.993V502.009C161.131 502.83 159.081 503.238 156.835 503.238C152.864 503.238 149.479 501.967 146.674 499.413C143.868 496.865 142.462 493.791 142.462 490.179V478.059H149.648V490.179C149.648 491.994 150.351 493.537 151.764 494.802C153.177 496.073 154.863 496.706 156.835 496.706C158.807 496.706 160.532 496.073 161.925 494.802C162.336 494.429 162.694 494.021 162.993 493.572V493.578Z" fill="#383838"/>
<path d="M196.921 471.538H204.107V502.31H196.921V502.009C195.059 502.83 193.009 503.238 190.763 503.238C186.792 503.238 183.407 501.967 180.595 499.413C177.789 496.865 176.383 493.791 176.383 490.179C176.383 486.566 177.783 483.498 180.595 480.95C183.4 478.402 186.792 477.125 190.763 477.125C193.009 477.125 195.059 477.533 196.921 478.355V471.526V471.538ZM196.921 486.791C196.621 486.371 196.263 485.957 195.853 485.561C194.454 484.29 192.761 483.658 190.763 483.658C188.764 483.658 187.104 484.296 185.692 485.579C184.279 486.862 183.576 488.393 183.576 490.185C183.576 491.976 184.279 493.543 185.692 494.808C187.104 496.079 188.79 496.711 190.763 496.711C192.735 496.711 194.46 496.079 195.853 494.808C196.263 494.435 196.621 494.027 196.921 493.578V486.791Z" fill="#383838"/>
<path d="M222.712 496.487C223.284 496.641 223.903 496.711 224.56 496.711C226.559 496.711 228.258 496.067 229.651 494.772C230.009 494.447 230.321 494.098 230.595 493.732L236.629 497.273C236.108 498.018 235.477 498.727 234.741 499.401C231.923 501.961 228.525 503.238 224.554 503.238C220.583 503.238 217.198 501.967 214.386 499.413C211.58 496.865 210.174 493.791 210.174 490.179C210.174 486.566 211.574 483.498 214.386 480.95C217.191 478.402 220.583 477.125 224.554 477.125C228.525 477.125 231.916 478.39 234.741 480.926C235.62 481.748 236.369 482.617 237 483.539L222.712 496.481V496.487ZM226.448 483.841C225.849 483.717 225.218 483.658 224.56 483.658C222.588 483.658 220.895 484.29 219.489 485.561C218.077 486.827 217.374 488.37 217.374 490.185C217.374 490.782 217.458 491.343 217.621 491.864L226.448 483.841Z" fill="#383838"/>
<path d="M117.817 475.073L113.241 466.761L108.664 475.073H117.817Z" fill="#0072BA"/>
<defs>
<linearGradient id="paint0_linear_7_130" x1="107.334" y1="186.556" x2="386.272" y2="12.8814" gradientUnits="userSpaceOnUse">
<stop stop-color="#F1FAFF"/>
<stop offset="1" stop-color="#0072BA"/>
</linearGradient>
</defs>
</svg>
