<svg width="40" height="34" viewBox="0 0 40 34" fill="none" xmlns="http://www.w3.org/2000/svg">
<path fill-rule="evenodd" clip-rule="evenodd" d="M34.9537 0.0598493C34.4406 0.253895 32.5991 1.45958 30.5733 2.92775C26.1138 6.15969 21.0946 10.7748 16.9251 15.4773C16.3937 16.0766 15.9087 16.6172 15.8474 16.6787C15.7545 16.7718 15.0931 16.3825 11.8825 14.3454C9.76314 13.0006 7.92617 11.8642 7.80024 11.8199C7.34847 11.6613 7.09644 11.8142 5.65023 13.1243C3.96463 14.6513 3.97343 14.6283 4.72108 15.5697C4.9804 15.8962 5.81369 16.9443 6.5729 17.8988C9.67652 21.8011 13.0058 26.2074 14.4272 28.2941C14.8593 28.9284 15.3127 29.5187 15.4348 29.6058C15.7585 29.8369 16.1984 29.811 16.5096 29.5423C16.651 29.4203 17.1785 28.6847 17.6819 27.9078C21.1648 22.5323 25.9969 16.0087 30.0169 11.2549C32.8813 7.86776 35.1173 5.53179 37.9284 2.9895C39.8491 1.25253 40 1.09538 40 0.831511C40 0.631331 39.9232 0.468927 39.7407 0.283437L39.4813 0.0198134L37.3173 0.0020554C36.1251 -0.00771145 35.0636 0.0182796 34.9537 0.0598493ZM14.1654 4.51385C8.10625 5.06806 2.84632 8.87285 0.839756 14.1528C-0.333428 17.24 -0.274644 20.7966 0.999032 23.7914C3.02631 28.5582 7.51717 31.9492 13.0305 32.876C14.1219 33.0596 16.4084 33.1189 17.5753 32.994C24.5359 32.2489 30.0838 27.4815 31.3375 21.1679C31.5547 20.0741 31.5625 17.5376 31.3519 16.4459C31.2229 15.7775 31.1689 15.6506 30.9317 15.4571C30.4553 15.0687 29.796 15.2086 29.5514 15.7502C29.4589 15.9552 29.4595 16.1217 29.555 16.6477C30.0538 19.3962 29.5775 22.1177 28.1629 24.6018C24.5372 30.9684 15.8583 33.3269 8.94096 29.8252C3.2972 26.9682 0.544237 20.9 2.34012 15.2751C3.01022 13.1766 4.13671 11.4337 5.8281 9.87908C8.51365 7.41065 11.9254 6.11061 15.7217 6.10924C17.4194 6.1086 18.1918 6.21167 20.2128 6.70865C20.9383 6.88704 21.5023 6.572 21.5023 5.98825C21.5023 5.53542 21.1775 5.28334 20.2843 5.04304C18.2464 4.49472 16.2564 4.32263 14.1654 4.51385Z" fill="white"/>
</svg>
