<svg width="50" height="50" viewBox="0 0 50 50" fill="none" xmlns="http://www.w3.org/2000/svg">
<circle cx="25" cy="25" r="25" fill="url(#paint0_linear_7_301)"/>
<path fill-rule="evenodd" clip-rule="evenodd" d="M15.9904 14.0776C14.5893 14.4196 13.7223 15.7439 14.0811 16.9939C14.302 17.7638 14.9576 18.4254 15.7607 18.6889C16.1889 18.8293 16.896 18.8576 17.3043 18.7506C17.8066 18.619 18.2141 18.3954 18.5558 18.0639C19.5955 17.0552 19.5335 15.561 18.4133 14.6317C17.7499 14.0815 16.8333 13.8718 15.9904 14.0776ZM30.0133 20.3382C29.4841 20.373 28.8839 20.5057 28.3631 20.7031C27.6039 20.991 26.7198 21.6589 26.3573 22.2185L26.2068 22.451L26.1922 21.5377L26.1776 20.6245H23.9787H21.7798V27.2971V33.9697H24.0604H26.341L26.3415 30.5725C26.3421 27.0765 26.3756 26.3043 26.5543 25.6701C26.8396 24.6577 27.4975 24.1149 28.6026 23.9798C29.7119 23.8443 30.6039 24.1889 31.009 24.9097C31.3775 25.5653 31.4338 26.3422 31.4367 30.8161L31.4388 33.9697H33.7194H36V29.9055C36 27.4662 35.9772 25.5919 35.9431 25.2176C35.824 23.9122 35.4737 22.7958 34.9657 22.1021C34.7177 21.7636 34.2193 21.2842 33.9295 21.1056C32.9757 20.5174 31.547 20.2375 30.0133 20.3382ZM14.3745 27.2971V33.9697H16.6551H18.9357V27.2971V20.6245H16.6551H14.3745V27.2971Z" fill="white"/>
<defs>
<linearGradient id="paint0_linear_7_301" x1="25" y1="0" x2="25" y2="50" gradientUnits="userSpaceOnUse">
<stop stop-color="#0E4F95"/>
<stop offset="1" stop-color="#0072BA"/>
</linearGradient>
</defs>
</svg>
